HIERARCHY
ROOT Hips
{
    OFFSET 0.000000 0.000000 0.000000
    CHANNELS 6 Xposition Yposition Zposition Zrotation Xrotation Yrotation
    JOINT Spine
    {
        OFFSET -0.000000 7.246840 0.000000
        CHANNELS 3 Zrotation Xrotation Yrotation
        JOINT Spine1
        {
            OFFSET -0.000000 20.289354 0.000000
            CHANNELS 3 Zrotation Xrotation Yrotation
            JOINT Neck
            {
                OFFSET -0.000000 20.206032 1.836912
                CHANNELS 3 Zrotation Xrotation Yrotation
                JOINT Head
                {
                    OFFSET -0.000000 12.372654 -1.767522
                    CHANNELS 3 Zrotation Xrotation Yrotation
                    End Site
                    {
                        OFFSET -0.000000 22.094025 0.000000
                    }
                }
            }
            JOINT LeftShoulder
            {
                OFFSET 3.465871 17.201674 -0.568930
                CHANNELS 3 Zrotation Xrotation Yrotation
                JOINT LeftArm
                {
                    OFFSET 14.070313 0.000000 0.000000
                    CHANNELS 3 Zrotation Xrotation Yrotation
                    JOINT LeftForeArm
                    {
                        OFFSET 26.549477 0.000000 0.000000
                        CHANNELS 3 Zrotation Xrotation Yrotation
                        JOINT LeftHand
                        {
                            OFFSET 18.880413 0.000000 0.000000
                            CHANNELS 3 Zrotation Xrotation Yrotation
                            End Site
                            {
                                OFFSET 13.256415 0.000000 0.000000
                            }
                        }
                    }
                }
            }
            JOINT RightShoulder
            {
                OFFSET -3.526370 17.201674 -0.568930
                CHANNELS 3 Zrotation Xrotation Yrotation
                JOINT RightArm
                {
                    OFFSET -14.070313 0.000000 0.000000
                    CHANNELS 3 Zrotation Xrotation Yrotation
                    JOINT RightForeArm
                    {
                        OFFSET -26.549477 0.000000 0.000000
                        CHANNELS 3 Zrotation Xrotation Yrotation
                        JOINT RightHand
                        {
                            OFFSET -18.880413 0.000000 0.000000
                            CHANNELS 3 Zrotation Xrotation Yrotation
                            End Site
                            {
                                OFFSET -13.256415 0.000000 0.000000
                            }
                        }
                    }
                }
            }
        }
    }
    JOINT LeftUpLeg
    {
        OFFSET 8.837609 0.000000 0.000000
        CHANNELS 3 Zrotation Xrotation Yrotation
        JOINT LeftLeg
        {
            OFFSET -0.000000 -41.345005 0.000000
            CHANNELS 3 Zrotation Xrotation Yrotation
            JOINT LeftFoot
            {
                OFFSET -0.000000 -35.500874 0.000000
                CHANNELS 3 Zrotation Xrotation Yrotation
                JOINT LeftToeBase
                {
                    OFFSET -0.000000 -5.744446 13.256415
                    CHANNELS 3 Zrotation Xrotation Yrotation
                    End Site
                    {
                        OFFSET -0.000000 0.000000 3.535044
                    }
                }
            }
        }
    }
    JOINT RightUpLeg
    {
        OFFSET -8.837609 0.000000 0.000000
        CHANNELS 3 Zrotation Xrotation Yrotation
        JOINT RightLeg
        {
            OFFSET -0.000000 -41.345005 0.000000
            CHANNELS 3 Zrotation Xrotation Yrotation
            JOINT RightFoot
            {
                OFFSET -0.000000 -35.500874 0.000000
                CHANNELS 3 Zrotation Xrotation Yrotation
                JOINT RightToeBase
                {
                    OFFSET -0.000000 -5.744446 13.256415
                    CHANNELS 3 Zrotation Xrotation Yrotation
                    End Site
                    {
                        OFFSET -0.000000 0.000000 3.535044
                    }
                }
            }
        }
    }
}
MOTION
Frames:    11
Frame Time:    0.010000
9.171064    92.802612    22.222099    -2.621584    10.087725    59.964458    -9.896014    -7.417744    2.509904    3.634166    8.144523    2.894298    4.663652    25.271036    -29.018953    29.869799    -23.665720    -19.792549    8.187194    6.793702    10.794134    -78.647697    37.306034    4.890633    1.722404    -28.187632    -48.227726    -35.934875    -24.259977    -11.092169    -0.291726    1.027431    16.461012    46.922394    24.189932    24.146055    -11.292294    -24.911629    22.413843    7.491975    -22.076424    12.890382    -2.731323    -9.395418    -10.756692    2.581272    10.141504    -0.119878    -7.087743    11.860097    -3.300750    -0.039951    -6.363564    0.058241    -4.772887    -3.119663    -17.237961    -1.177516    21.655886    3.053673    13.992228    15.938700    -0.374466    -0.223629    -10.470943    0.455395    
9.445225    92.000862    21.992733    -2.325651    9.807630    56.023643    -10.007853    -7.812159    2.877593    3.835548    8.489186    3.278013    4.432401    25.276991    -28.668112    29.487001    -22.900862    -19.766033    7.913193    6.841209    10.966580    -79.332413    37.226646    4.721928    1.458484    -28.820240    -46.731155    -35.795055    -25.172609    -10.696847    0.192084    1.027681    16.710207    47.450932    25.176062    24.580185    -11.140103    -24.560301    21.462711    7.072013    -21.901958    12.501563    -1.580741    -8.931189    -13.000663    2.246332    8.938117    0.570603    -6.864712    12.346272    -4.892213    -0.032557    -4.891618    0.046998    -4.221719    -2.864414    -18.519070    -1.614208    21.882296    3.045396    13.908764    16.137852    -0.308709    0.107252    -11.114291    -0.220328    
9.705126    91.098663    21.714968    -2.093891    9.638697    51.986576    -9.990326    -8.140950    3.271315    3.848954    8.521276    3.697319    4.379159    25.374323    -28.281054    28.610867    -22.330706    -19.791075    7.661749    6.769910    10.913301    -80.236053    37.067566    5.215566    1.918307    -28.230127    -45.102394    -35.274551    -24.389894    -10.938761    0.551363    1.149393    16.909361    48.051559    26.417082    25.028194    -11.223432    -24.409378    20.587961    7.044610    -21.835688    12.205114    -0.540689    -8.680847    -15.227530    1.940672    8.534214    -0.301585    -6.972068    12.641491    -5.561065    -0.610935    -3.902735    0.876239    -3.879121    -2.931634    -19.178984    -2.223768    22.614399    2.837648    13.112665    15.894711    -1.000808    -0.160443    -10.568959    0.327170    
9.968619    90.071556    21.415169    -1.741583    9.374196    48.051025    -9.834422    -8.176948    3.629247    3.556221    8.512486    4.069302    4.433614    25.100597    -27.799845    27.537107    -21.616823    -19.812490    7.722312    6.578698    11.093030    -81.084137    36.935532    5.631300    2.063807    -27.764986    -44.040318    -34.663906    -24.018591    -10.642049    0.919443    1.234181    16.912077    48.728985    27.985085    25.430042    -11.545294    -24.558287    20.164560    6.983880    -22.004646    11.770134    0.256386    -8.646441    -16.896524    1.783656    9.105345    -3.541960    -7.456789    12.796067    -4.355836    -0.932657    -3.212759    1.331756    -3.727167    -2.752733    -19.712620    -2.694729    23.378431    2.805816    12.612426    15.689205    -1.612465    -0.868875    -17.080395    1.953760    
10.226679    88.956055    21.067038    -1.428588    9.232977    44.184071    -9.667781    -8.430271    3.961021    3.283211    8.698588    4.425589    4.214726    24.871389    -27.237425    26.603624    -20.982067    -19.692148    7.435050    6.438426    11.094667    -81.438522    36.852638    5.903546    2.086375    -27.458830    -43.499863    -33.732483    -23.922861    -10.173214    1.080560    1.299336    16.975431    49.387218    29.143850    25.783367    -11.361323    -24.416647    19.917402    6.621344    -21.959814    11.575042    0.871659    -8.901364    -18.145540    0.913335    10.895825    -4.381792    -7.088108    13.247500    -5.158237    -1.285053    -4.720098    1.852850    -3.790357    -2.738496    -19.849695    -3.090676    24.218475    2.730484    10.361236    15.060714    -0.590896    -0.608341    -25.385086    1.600272    
10.456312    87.756714    20.662600    -1.025360    9.279602    40.409962    -9.691611    -8.482189    4.098235    2.978388    8.522820    4.596790    3.772089    24.680269    -26.453541    25.734205    -20.267551    -19.339333    7.361987    6.211567    11.128990    -82.149536    36.740242    6.698231    2.051657    -27.102619    -43.139801    -32.804665    -23.622501    -10.303732    1.192064    1.620753    17.206751    49.559612    30.776497    26.374437    -11.147415    -24.422798    20.068098    5.777705    -22.104187    10.780740    1.091510    -9.448698    -18.211441    0.870578    13.760633    -8.888865    -9.568966    8.368891    -0.858702    -1.293635    -9.755404    1.931238    -4.164826    -2.927424    -19.905159    -3.502449    25.166679    3.232040    10.879958    12.438531    -0.410104    -0.490433    -32.048100    1.523148    
10.733001    86.455070    20.251980    -0.579478    9.219288    36.785175    -9.598782    -8.344763    4.315706    2.574062    8.167704    4.833888    3.468099    24.816769    -25.762135    25.270554    -20.062706    -18.814438    7.482265    6.228964    11.167513    -82.620018    36.730804    6.907457    2.284255    -26.474190    -42.727112    -32.524212    -23.131548    -9.541473    1.368405    1.680974    17.044662    50.067429    32.440762    26.573265    -11.207237    -23.971943    20.101919    6.096619    -21.607349    10.720163    1.277166    -9.866083    -17.774147    0.382293    17.064535    -9.962854    -10.356939    2.538363    0.585255    -1.213822    -8.264378    1.792831    -4.571098    -3.030519    -19.915564    -4.051361    26.162931    4.207674    10.361793    7.238830    0.667225    -0.217407    -29.486752    0.630043    
11.064396    85.053421    19.785553    0.012367    9.188625    32.926151    -9.420616    -8.634128    4.518224    2.161663    8.774165    5.065236    2.630348    24.698647    -24.781441    25.397051    -20.231478    -17.769547    7.443860    5.698047    11.475722    -83.125099    36.898155    7.312085    2.109359    -26.765196    -42.661877    -32.468506    -23.400822    -9.906974    1.136956    1.151313    17.231152    50.801281    33.892601    26.600721    -10.779308    -23.783470    20.713696    5.456624    -21.521057    9.968275    1.411000    -9.901371    -15.635680    -0.687406    19.545359    -9.552013    -10.288376    -1.558862    -0.079295    -1.005325    -8.842016    1.490999    -5.158353    -3.371048    -19.232513    -5.026779    27.739662    6.136132    7.758756    1.751805    1.240527    0.162447    -25.987514    -0.432958    
11.400187    83.601860    19.278381    0.784614    9.160941    29.234097    -9.624603    -8.513121    4.621329    2.020325    8.994578    5.180550    1.743404    24.725206    -23.804573    25.889671    -20.679907    -16.549765    7.230330    4.460103    11.280167    -84.116562    36.260880    8.838066    1.997595    -27.210428    -42.723679    -33.085171    -23.763025    -10.203259    1.095100    0.808245    17.160715    51.139114    35.336754    26.674923    -10.591925    -23.638458    21.177979    6.188779    -21.296801    10.124532    1.228050    -9.539388    -13.317499    -1.400807    20.989672    -8.410376    -9.010389    -4.783432    -0.958673    -1.277279    -8.038144    1.883546    -5.973725    -3.856940    -17.649723    -5.878185    29.804077    9.070158    6.134532    -3.651581    -0.518896    0.540109    -22.049091    -1.326891    
11.770490    82.155586    18.789000    1.801151    9.073996    25.670544    -10.091926    -8.336893    4.563860    1.851313    9.577258    5.146281    1.058446    24.255836    -22.848829    26.137882    -21.030113    -15.438646    6.757172    4.789551    12.216753    -83.502655    36.211933    7.364248    2.094850    -27.279295    -42.177513    -33.676739    -23.800188    -10.048229    1.430141    -0.009184    17.174963    51.608196    36.833988    26.155298    -10.505359    -23.522308    21.910809    7.411281    -21.019197    10.258813    0.575683    -8.949923    -10.558090    -1.614903    22.176006    -7.199440    -7.548291    -7.577645    -1.561999    -0.831858    -7.797368    1.224672    -6.989044    -4.438843    -14.889372    -6.055943    32.424698    10.784667    5.544430    -8.902182    -3.954878    0.122105    -20.752781    -0.292696    
12.171699    80.835678    18.265415    3.181682    8.847386    22.139122    -11.212435    -7.630209    4.368049    2.382440    9.782559    4.914351    -0.495657    23.172663    -21.666224    26.206804    -20.378490    -14.424962    5.910478    4.384313    13.157868    -83.451576    36.579868    7.082285    3.233374    -25.450035    -40.687229    -33.576138    -21.512085    -10.233188    0.933944    -0.593971    16.946531    52.413406    38.156452    26.128580    -10.530200    -23.156269    22.279415    9.221510    -20.436855    10.510725    -0.850359    -8.228510    -7.025448    -0.977459    23.360756    -6.172663    -5.533970    -10.123100    -2.433793    -0.845532    -7.914396    1.245822    -8.264069    -4.948829    -11.932206    -5.844059    34.920963    10.638845    4.890599    -13.050090    -6.442355    -0.241423    -19.366230    0.564523    
